<svg width="50" height="47" viewBox="0 0 50 47" fill="none" xmlns="http://www.w3.org/2000/svg">
<path d="M12.4194 8.87097V1.77419C12.4194 1.30365 12.6063 0.852375 12.939 0.519649C13.2717 0.186923 13.723 0 14.1935 0C14.6641 0 15.1154 0.186923 15.4481 0.519649C15.7808 0.852375 15.9677 1.30365 15.9677 1.77419V8.87097C15.9677 9.34151 15.7808 9.79279 15.4481 10.1255C15.1154 10.4582 14.6641 10.6452 14.1935 10.6452C13.723 10.6452 13.2717 10.4582 12.939 10.1255C12.6063 9.79279 12.4194 9.34151 12.4194 8.87097ZM21.2903 10.6452C21.7609 10.6452 22.2121 10.4582 22.5449 10.1255C22.8776 9.79279 23.0645 9.34151 23.0645 8.87097V1.77419C23.0645 1.30365 22.8776 0.852375 22.5449 0.519649C22.2121 0.186923 21.7609 0 21.2903 0C20.8198 0 20.3685 0.186923 20.0358 0.519649C19.7031 0.852375 19.5161 1.30365 19.5161 1.77419V8.87097C19.5161 9.34151 19.7031 9.79279 20.0358 10.1255C20.3685 10.4582 20.8198 10.6452 21.2903 10.6452ZM28.3871 10.6452C28.8576 10.6452 29.3089 10.4582 29.6416 10.1255C29.9744 9.79279 30.1613 9.34151 30.1613 8.87097V1.77419C30.1613 1.30365 29.9744 0.852375 29.6416 0.519649C29.3089 0.186923 28.8576 0 28.3871 0C27.9166 0 27.4653 0.186923 27.1326 0.519649C26.7998 0.852375 26.6129 1.30365 26.6129 1.77419V8.87097C26.6129 9.34151 26.7998 9.79279 27.1326 10.1255C27.4653 10.4582 27.9166 10.6452 28.3871 10.6452ZM49.6774 23.0645V24.8387C49.6767 27.0954 48.816 29.2669 47.2705 30.9113C45.725 32.5557 43.611 33.5492 41.3587 33.6897C40.1485 37.1129 38.088 40.1724 35.3708 42.5806H40.8064C41.277 42.5806 41.7283 42.7676 42.061 43.1003C42.3937 43.433 42.5806 43.8843 42.5806 44.3548C42.5806 44.8254 42.3937 45.2767 42.061 45.6094C41.7283 45.9421 41.277 46.129 40.8064 46.129H1.77419C1.30365 46.129 0.852375 45.9421 0.519649 45.6094C0.186923 45.2767 0 44.8254 0 44.3548C0 43.8843 0.186923 43.433 0.519649 43.1003C0.852375 42.7676 1.30365 42.5806 1.77419 42.5806H7.21653C4.95289 40.5808 3.1392 38.1235 1.89523 35.371C0.651263 32.6185 0.0053023 29.6334 0 26.6129V15.9677C0 15.4972 0.186923 15.0459 0.519649 14.7132C0.852375 14.3805 1.30365 14.1935 1.77419 14.1935H40.8064C43.1592 14.1935 45.4155 15.1282 47.0792 16.7918C48.7428 18.4554 49.6774 20.7118 49.6774 23.0645ZM39.0323 17.7419H3.54839V26.6129C3.55523 29.9441 4.49663 33.2066 6.26557 36.0294C8.0345 38.8521 10.56 41.1219 13.5548 42.5806H29.0258C32.0207 41.1219 34.5462 38.8521 36.3151 36.0294C38.084 33.2066 39.0254 29.9441 39.0323 26.6129V17.7419ZM46.129 23.0645C46.1287 21.9641 45.7873 20.8909 45.1518 19.9925C44.5164 19.0941 43.6181 18.4148 42.5806 18.048V26.6129C42.5793 27.727 42.4903 28.8393 42.3145 29.9395C43.4153 29.6143 44.3815 28.9419 45.069 28.0227C45.7564 27.1034 46.1282 25.9866 46.129 24.8387V23.0645Z" fill="#2C2B2B"/>
</svg>
